<svg xmlns="http://www.w3.org/2000/svg" width="58" height="64" fill="none"><path fill="#4A56A7" fill-rule="evenodd" d="M36.708 55.444h17.01c2.368 0 4.282 1.932 4.282 4.291A4.27 4.27 0 0 1 53.718 64h-46.8a4.27 4.27 0 0 1-4.282-4.265A4.27 4.27 0 0 1 6.92 55.47h17.009c0-.226.013-.466.04-.693a20.508 20.508 0 0 1-9.729-6.864 19.836 19.836 0 0 1-4.175-11.235H1.07c-.59 0-1.071-.48-1.071-1.066 0-.587.482-1.066 1.07-1.066H5.06a.89.89 0 0 1-.094-.414v-.013a1.06 1.06 0 0 1 1.07-1.053H16.18c.575 0 1.057.467 1.057 1.053-.014.147-.04.28-.094.413h3.988c.589 0 1.07.48 1.07 1.067 0 .586-.481 1.066-1.07 1.066h-8.94c.455 7.357 5.353 13.714 12.366 16.06a6.289 6.289 0 0 1 2.984-2.986c3.185-1.52 7-.186 8.525 2.972 7.387-2.492 12.379-9.382 12.392-17.152 0-9.916-8.056-17.993-17.986-18.073l-4.563 4.545-3.426 3.425a1.078 1.078 0 0 1-1.512 0l-6.023-5.997a1.067 1.067 0 0 1 0-1.506L29.977 2.959c.2-.187.482-.307.763-.307.294 0 .562.107.763.307l.468.466L35.089.32c.2-.2.482-.32.763-.32.294 0 .562.12.763.32l3.546 3.572a1.067 1.067 0 0 1 0 1.506L37.043 8.49l.482.48a1.067 1.067 0 0 1 0 1.506l-5.019 4.998c10.171 1.08 18.107 9.675 18.107 20.085A19.983 19.983 0 0 1 46.41 47.86a20.44 20.44 0 0 1-9.743 6.89c.027.227.04.454.04.694Zm1.178-50.82L35.852 2.6l-2.355 2.346L35.53 6.97l2.355-2.345ZM21.733 23.19l-4.51-4.491 1.914-1.906 4.51 4.478-1.914 1.92Zm-1.07-7.89 4.496 4.478L35.263 9.716l-.468-.48-3.52-3.505c-.007 0-.013-.007-.02-.013-.007-.007-.013-.014-.02-.014-.008 0-.011-.005-.016-.012l-.005-.007a.06.06 0 0 0-.006-.007l-.441-.44L20.663 15.3Zm33.055 46.54h-46.8a2.143 2.143 0 0 1-2.14-2.132c0-1.172.963-2.132 2.14-2.132h18.188a1.06 1.06 0 0 0 1.07-1.053c0-.08-.013-.16-.026-.24a4.188 4.188 0 0 1-.08-.813 4.255 4.255 0 0 1 4.255-4.225c2.342.014 4.242 1.906 4.242 4.239 0 .28-.027.546-.08.813-.12.573.254 1.132.83 1.252l.03.005c.067.012.127.022.197.022h18.187c1.178 0 2.141.96 2.141 2.133 0 1.172-.977 2.132-2.154 2.132Zm-24.785-7.17c0-.76.616-1.386 1.392-1.386.763 0 1.392.614 1.392 1.387 0 .76-.616 1.386-1.392 1.386a1.396 1.396 0 0 1-1.392-1.386Z" clip-rule="evenodd"/></svg>