<svg xmlns="http://www.w3.org/2000/svg" width="64" height="47" fill="none"><path fill="#4A56A7" fill-rule="evenodd" d="M58.164 21.34a37.616 37.616 0 0 1 5.659 6.941c.236.382.236.866 0 1.248-3 4.74-7.033 8.747-11.804 11.726C34.438 52.247 11.229 46.993.177 29.528a1.186 1.186 0 0 1 0-1.247C7.047 17.406 19.073 10.801 32 10.816c2.23 0 4.447.206 6.633.587l7.55-10.89c.221-.322.59-.513.975-.513.384 0 .753.19.975.514l8.953 12.93c.005.01.013.021.021.033.014.02.029.041.038.07a10.918 10.918 0 0 1 1.02 7.792ZM39.21 14.72a8.98 8.98 0 0 0-.99 3.816 8.891 8.891 0 0 0 2.6 6.59 8.873 8.873 0 0 0 3.22 2.054h.015a8.988 8.988 0 0 0 9.426-2.054 9.294 9.294 0 0 0 2.187-3.61c0-.03.014-.06.03-.089.014-.014.014-.03.014-.044v-.014a8.549 8.549 0 0 0-.606-6.649L47.158 3.243 40.08 13.458l-.871 1.262Zm3.161 14.295c-.059 5.694-4.757 10.258-10.49 10.2-5.731-.059-10.326-4.726-10.267-10.42.06-5.65 4.683-10.2 10.371-10.2 1.315 0 2.63.25 3.856.734a11.23 11.23 0 0 0 6.53 9.686Zm-39.786-.118C12.765 44.263 33.182 49.165 49.3 40.14a35.351 35.351 0 0 0 12.13-11.242 34.582 34.582 0 0 0-4.137-5.122 11.76 11.76 0 0 1-2.113 2.98l-.015.014a11.308 11.308 0 0 1-10.445 3.038 12.277 12.277 0 0 1-.62 3.082c-2.216 6.634-9.44 10.23-16.119 8.028-6.677-2.201-10.297-9.378-8.08-16.012 2.215-6.633 9.44-10.229 16.118-8.027.192-1.175.576-2.29 1.137-3.332.015 0 .015-.014.015-.014C23.608 11.55 10.12 17.538 2.585 28.896ZM32 34.27c2.978 0 5.392-2.398 5.392-5.356 0-2.959-2.414-5.357-5.392-5.357s-5.392 2.398-5.392 5.357c0 2.958 2.414 5.356 5.392 5.356Zm18.246-18.39a1.182 1.182 0 0 1 1.654.206 6.23 6.23 0 0 1-1.152 8.762 1.2 1.2 0 0 1-1.67-.206 1.166 1.166 0 0 1 .222-1.643 3.9 3.9 0 0 0 .724-5.475 1.166 1.166 0 0 1 .222-1.643Z" clip-rule="evenodd"/></svg>