<svg xmlns="http://www.w3.org/2000/svg" width="50" height="64" fill="none"><path fill="#4A56A7" fill-rule="evenodd" d="M36.71 3.541h12.211A1.055 1.055 0 0 1 50 4.564v58.4c-.013.59-.5 1.049-1.079 1.036H1.08A1.074 1.074 0 0 1 0 62.964v-58.4c.013-.577.5-1.036 1.079-1.023h12.21V1.036c.014-.59.5-1.049 1.08-1.036h21.263c.579 0 1.065.46 1.079 1.036v2.505ZM34.606 2.1h-19.21v4.983h19.21V2.1ZM47.895 61.9H2.105V5.64H13.29v2.452c.014.59.487 1.075 1.08 1.089h21.263a1.111 1.111 0 0 0 1.079-1.089V5.64h11.184V61.9Zm-32.237-46.95H8.553c-.58 0-1.053.472-1.053 1.05v7.081c0 .577.474 1.05 1.053 1.05h7.105c.579 0 1.053-.473 1.053-1.05V16c0-.577-.474-1.049-1.053-1.049Zm-1.053 7.082h-5v-4.984h5v4.984Zm26.33-7.082H23.223c-.58 0-1.053.472-1.053 1.05 0 .576.474 1.048 1.053 1.048h17.71c.58 0 1.053-.472 1.053-1.049s-.474-1.049-1.053-1.049Zm-17.698 7.082h8.855c.58 0 1.053.472 1.053 1.049s-.474 1.05-1.053 1.05h-8.855a1.054 1.054 0 0 1-1.053-1.05c0-.577.474-1.05 1.053-1.05Zm6.631 27.54h-5.381l-1.58-6.281a1.066 1.066 0 0 0-1.275-.774 1.055 1.055 0 0 0-.724.63l-4.053 10.098-1.04-4.656a1.08 1.08 0 0 0-1.025-.852H8.591c-.579 0-1.053.472-1.053 1.049s.474 1.049 1.053 1.049h5.355l1.593 7.16c.105.446.486.787.947.827.013 0 .026.003.04.006a.163.163 0 0 0 .039.007c.434 0 .816-.262.974-.656l4.105-10.23.987 3.935c.118.472.54.8 1.026.8h6.21a1.057 1.057 0 0 0 0-2.111ZM8.605 29.247h32.342c.58 0 1.04.472 1.04 1.05 0 .576-.474 1.048-1.053 1.048H8.605a1.054 1.054 0 0 1-1.052-1.049c0-.577.473-1.05 1.052-1.05Zm32.342 7.082H8.605c-.579 0-1.052.472-1.052 1.049s.473 1.05 1.052 1.05h32.33c.578 0 1.052-.473 1.052-1.05 0-.577-.46-1.05-1.04-1.05Zm-7.973 19.41h7.973c.58 0 1.053.472 1.053 1.049s-.474 1.049-1.053 1.049h-7.973a1.054 1.054 0 0 1-1.053-1.05c0-.576.474-1.049 1.053-1.049Z" clip-rule="evenodd"/></svg>